<svg width="113" height="18" viewBox="0 0 113 18" fill="none" xmlns="http://www.w3.org/2000/svg">
<path d="M15.6783 13L0 13L7.32153 0L23 0L15.6783 13Z" fill="#a793cc"/>
<path d="M28.5781 5.35132C26.7601 5.35132 25.8312 6.78268 25.8312 8.93895C25.8312 10.9773 26.8356 12.5071 28.5781 12.5071C30.5485 12.5071 31.2872 10.7033 31.2872 8.93895C31.2859 7.09658 30.3574 5.35132 28.5774 5.35132M23.7475 0L25.907 0L25.907 5.17483H25.9452C26.5324 4.19498 27.7637 3.58706 28.8625 3.58706C31.9499 3.58706 33.447 6.01864 33.447 8.97884C33.447 11.7029 32.1211 14.2709 29.2222 14.2709C27.8961 14.2709 26.4753 13.9384 25.831 12.605H25.7935L25.7935 13.9974L23.7473 13.9974L23.7473 0.000343338L23.7475 5.72504e-05M45.054 12.4934C43.8223 12.5074 43.6952 12.5074 43.6012 12.5074C43.2035 12.5074 43.0895 12.2917 43.0895 11.7427L43.0895 6.52762C43.0895 4.3915 41.0817 3.58706 39.1677 3.58706C37.0081 3.58706 34.8678 4.35133 34.7167 6.95934L36.8759 6.95934C36.9709 5.86138 37.8229 5.35132 39.0354 5.35132C39.9067 5.35132 41.0625 5.56764 41.0625 6.72397C41.0625 8.03733 39.6795 7.86073 38.1261 8.15534C36.3075 8.37028 34.3565 8.78312 34.3565 11.3107C34.3565 13.2914 35.9474 14.2709 37.7091 14.2709C38.8649 14.2709 40.2476 13.8984 41.1005 13.0374C41.2703 13.9581 41.8962 14.2709 42.7674 14.2709L45.1478 14.1235L45.054 12.4934ZM40.934 10.5862C40.934 11.9974 39.4563 12.5076 38.5091 12.5076C37.7511 12.5076 36.5194 12.2126 36.5194 11.2134C36.5194 10.0368 37.3533 9.6837 38.2819 9.52679C39.2287 9.35053 40.2708 9.37061 40.934 8.91978V10.5862Z" fill="#737373"/>
<path d="M50.1756 3.58703C48.8874 3.58703 47.7695 4.27307 47.1253 5.39118L47.0875 5.35135V3.86184L45.0415 3.86184L45.0314 12.4935L45.1252 14.1235L47.201 13.9966L47.201 8.01836C47.201 6.528 48.1295 5.35163 49.5689 5.35163C50.8381 5.35163 51.4448 6.03813 51.4823 7.62567L51.4823 13.9969L53.6428 13.9969L53.6428 7.03789C53.647 4.7642 52.3013 3.58738 50.1791 3.58738M59.9331 12.5074C61.8652 12.5074 62.6802 10.684 62.6802 8.91929C62.6802 6.68531 61.6385 5.35135 59.971 5.35135C57.9438 5.35135 57.2238 7.21392 57.2238 9.03672C57.2238 10.7816 58.057 12.507 59.9335 12.507M64.7638 13.9969L62.7175 13.9969L62.7175 12.6248H62.6801C62.112 13.7814 60.8798 14.271 59.6487 14.271C56.5614 14.271 55.0643 11.8988 55.0643 8.86075C55.0643 5.19495 57.1674 3.58738 59.3084 3.58738C60.5392 3.58738 61.9029 4.05818 62.5661 5.17486H62.6046L62.6046 0.000488281L64.7639 0.000488281L64.7639 13.9972V13.9969M73.346 7.25352C73.1753 6.01844 72.304 5.35152 71.1107 5.35152C69.9924 5.35152 68.4205 5.95956 68.4205 9.03741C68.4205 10.7235 69.14 12.5077 71.0158 12.5077C72.266 12.5077 73.1371 11.6441 73.346 10.1933L75.5054 10.1933C75.1075 12.8202 73.5355 14.271 71.0158 14.271C67.9467 14.271 66.2608 12.0171 66.2608 9.03741C66.2608 5.97942 67.8711 3.58766 71.0916 3.58766C73.3648 3.58766 75.2976 4.7638 75.5054 7.25364L73.3495 7.25364L73.346 7.25352ZM87.0533 12.4935C85.8216 12.5074 85.6944 12.5074 85.6005 12.5074C85.2028 12.5074 85.0889 12.2918 85.0889 11.7428L85.0889 6.52765C85.0889 4.39153 83.081 3.58709 81.167 3.58709C79.0073 3.58709 76.8671 4.35136 76.716 6.95937L78.8752 6.95937C78.9702 5.86141 79.8221 5.35135 81.0347 5.35135C81.906 5.35135 83.0618 5.56767 83.0618 6.724C83.0618 8.03736 81.6788 7.86076 80.1254 8.15537C78.3068 8.37031 76.3557 8.78315 76.3557 11.3108C76.3557 13.2914 77.9467 14.271 79.7083 14.271C80.8642 14.271 82.2468 13.8984 83.0998 13.0374C83.2696 13.9581 83.8955 14.271 84.7667 14.271L87.1471 14.1235L87.0533 12.4935ZM82.9333 10.5862C82.9333 11.9974 81.4555 12.5077 80.5084 12.5077C79.7503 12.5077 78.5186 12.2126 78.5186 11.2134C78.5186 10.0368 79.3526 9.68373 80.2812 9.52682C81.228 9.35056 82.2701 9.37064 82.9333 8.91981L82.9333 10.5862Z" fill="#737373"/>
<path d="M97.976 3.58691C96.5549 3.58691 95.627 4.23421 94.9073 5.273C94.4711 4.11695 93.3535 3.58697 92.1595 3.58697C90.6064 3.58697 89.7914 4.27295 89.1479 5.273H89.0907V3.86178L87.0436 3.86178L87.0436 12.4934L87.1424 14.1234L89.2035 13.9965V7.97876C89.2035 6.29296 90.2267 5.35152 91.3444 5.35152C92.6512 5.35152 93.0683 6.09604 93.0683 7.48895L93.0683 13.9968L95.2274 13.9968L95.2274 8.05722C95.2274 6.35127 95.8526 5.35169 97.3119 5.35169C98.9976 5.35169 99.0921 6.46899 99.0921 8.07713L99.0921 13.9967L101.252 13.9967L101.252 6.9988C101.253 4.52824 100.041 3.58731 97.9775 3.58731M108.035 5.35123C106.217 5.35123 105.288 6.7826 105.288 8.93886C105.288 10.9772 106.293 12.507 108.035 12.507C110.005 12.507 110.745 10.7032 110.745 8.93886C110.745 7.09649 109.815 5.35123 108.035 5.35123ZM103.205 3.86172L105.251 3.86172V5.23391H105.289C105.895 4.07775 107.069 3.58691 108.32 3.58691C111.408 3.58691 112.904 6.01855 112.904 8.97875C112.904 11.7028 111.578 14.2708 108.68 14.2708C107.43 14.2708 106.084 13.8006 105.403 12.6839H105.365L105.365 17.7403L103.205 17.7403L103.205 3.86258V3.86172Z" fill="#737373"/>
</svg>
