<svg width="49" height="63" viewBox="0 0 49 63" fill="none" xmlns="http://www.w3.org/2000/svg">
<g clip-path="url(#clip0_2_83)">
<path d="M21.9704 0H32.1681V47.1857C26.9446 48.1832 23.0993 48.5757 18.9387 48.5757C6.4835 48.5625 0 42.945 0 32.1563C0 21.7613 6.87723 15.015 17.5343 15.015C19.1881 15.015 20.4479 15.1464 21.9704 15.54V0ZM22.3277 24.0434C21.1334 23.6496 20.1491 23.5184 18.8891 23.5184C13.7313 23.5184 10.7521 26.6945 10.7521 32.2608C10.7521 37.6802 13.6002 40.6726 18.8237 40.6726C19.9522 40.6726 20.8709 40.6085 22.3277 40.4116V24.0434Z" fill="#2BA977"/>
<path d="M48.8444 16.2818V39.907C48.8444 48.0431 48.2407 51.9557 46.4688 55.3289C44.8151 58.572 42.6365 60.6169 38.1348 62.8756L28.6721 58.3739C33.1737 56.2619 35.3523 54.3956 36.7437 51.5476C38.2003 48.6352 38.6596 45.2619 38.6596 36.3894V16.282L48.8444 16.2818ZM37.632 0H47.8297V10.4607H37.632V0Z" fill="#2BA977"/>
</g>
<defs>
<clipPath id="clip0_2_83">
<rect width="49" height="63" fill="white"/>
</clipPath>
</defs>
</svg>
