<svg width="49" height="55" viewBox="0 0 49 55" fill="none" xmlns="http://www.w3.org/2000/svg">
<g clip-path="url(#clip0_2_112)">
<path d="M48.5232 22.919C48.387 22.8061 47.1608 21.8809 44.527 21.8809C43.8458 21.8809 43.1418 21.9486 42.4607 22.0614C41.9612 18.6088 39.0774 16.9389 38.9639 16.8486L38.26 16.4424L37.8059 17.0969C37.2383 17.977 36.8068 18.9699 36.557 19.9854C36.0803 21.9486 36.3754 23.7991 37.3745 25.3786C36.1711 26.0557 34.2183 26.2137 33.8096 26.2362H1.56668C0.726578 26.2362 0.0453759 26.9132 0.0453759 27.7482C2.24002e-05 30.5464 0.476807 33.3446 1.45322 35.9848C2.56577 38.8733 4.22338 41.0171 6.35778 42.326C8.76462 43.7927 12.6928 44.6277 17.1205 44.6277C19.1186 44.6277 21.1167 44.4472 23.0922 44.0861C25.8396 43.5896 28.4736 42.6419 30.9032 41.2653C32.8942 40.1182 34.6884 38.6552 36.2164 36.9326C38.7822 34.0667 40.3035 30.8623 41.4161 28.019H41.8702C44.6631 28.019 46.3888 26.9132 47.3424 25.9654C47.9782 25.3786 48.455 24.6566 48.7956 23.8442L49 23.2575L48.5232 22.919Z" fill="#0091E2"/>
<path d="M4.56404 25.311H8.87818C9.0826 25.311 9.26426 25.1531 9.26426 24.9275V21.0912C9.26426 20.8881 9.10528 20.7076 8.87818 20.7076H4.56404C4.3597 20.7076 4.17804 20.8655 4.17804 21.0912V24.9275C4.20072 25.1531 4.3597 25.3111 4.56404 25.3111V25.311ZM10.513 25.311H14.8273C15.0316 25.311 15.2133 25.1531 15.2133 24.9275V21.0912C15.2133 20.8881 15.0543 20.7076 14.8273 20.7076H10.513C10.3086 20.7076 10.127 20.8655 10.127 21.0912V24.9275C10.1497 25.1531 10.3087 25.3111 10.513 25.3111M16.5755 25.3111H20.8897C21.0941 25.3111 21.2757 25.1531 21.2757 24.9275V21.0912C21.2757 20.8881 21.1167 20.7076 20.8897 20.7076H16.5755C16.3712 20.7076 16.1895 20.8655 16.1895 21.0912V24.9275C16.1895 25.1531 16.3485 25.3111 16.5755 25.3111ZM22.5473 25.3111H26.8615C27.0658 25.3111 27.2475 25.1531 27.2475 24.9275V21.0912C27.2475 20.8881 27.0885 20.7076 26.8615 20.7076H22.5473C22.3429 20.7076 22.1613 20.8655 22.1613 21.0912V24.9275C22.1613 25.1531 22.3429 25.3111 22.5473 25.3111ZM10.513 19.8275H14.8272C15.0315 19.8275 15.2132 19.647 15.2132 19.4439V15.6076C15.2132 15.4045 15.0542 15.2239 14.8272 15.2239H10.513C10.3086 15.2239 10.127 15.3819 10.127 15.6076V19.4439C10.1497 19.647 10.3088 19.8275 10.513 19.8275ZM16.5755 19.8275H20.8897C21.0941 19.8275 21.2757 19.647 21.2757 19.4439V15.6076C21.2757 15.4045 21.1167 15.2239 20.8897 15.2239H16.5755C16.3712 15.2239 16.1895 15.3819 16.1895 15.6076V19.4439C16.1895 19.647 16.3485 19.8275 16.5755 19.8275ZM22.5473 19.8275H26.8615C27.0658 19.8275 27.2475 19.647 27.2475 19.4439V15.6076C27.2475 15.4045 27.0657 15.2239 26.8615 15.2239H22.5473C22.3429 15.2239 22.1613 15.3819 22.1613 15.6076V19.4439C22.1613 19.647 22.3429 19.8275 22.5473 19.8275ZM22.5473 14.3213H26.8615C27.0658 14.3213 27.2475 14.1634 27.2475 13.9377V10.1015C27.2475 9.89833 27.0657 9.71777 26.8615 9.71777H22.5473C22.3429 9.71777 22.1613 9.87575 22.1613 10.1015V13.9377C22.1613 14.1408 22.3429 14.3213 22.5473 14.3213ZM28.5644 25.3111H32.8786C33.0829 25.3111 33.2646 25.1531 33.2646 24.9275V21.0912C33.2646 20.8881 33.1057 20.7076 32.8786 20.7076H28.5645C28.36 20.7076 28.1784 20.8655 28.1784 21.0912V24.9275C28.2011 25.1531 28.3601 25.3111 28.5645 25.3111" fill="#0091E2"/>
</g>
<defs>
<clipPath id="clip0_2_112">
<rect width="49" height="54.3455" fill="white"/>
</clipPath>
</defs>
</svg>
