<svg width="54" height="14" viewBox="0 0 54 14" fill="none" xmlns="http://www.w3.org/2000/svg">
<path d="M10.403 5.99216L5.8659 5.99216C5.80967 5.99219 5.75575 6.01362 5.716 6.05174C5.67624 6.08986 5.65389 6.14155 5.65386 6.19546L5.65386 8.32239C5.65389 8.37633 5.67623 8.42806 5.71598 8.46623C5.75572 8.5044 5.80964 8.5259 5.8659 8.52601L7.63585 8.52601L7.63585 11.1684C7.63585 11.1684 7.23842 11.2984 6.13966 11.2984C4.84336 11.2984 3.03248 10.8442 3.03248 7.02625C3.03248 3.20758 4.91813 2.70503 6.68842 2.70503C8.22082 2.70503 8.88099 2.96385 9.30103 3.08836C9.43302 3.12716 9.55511 3.00125 9.55511 2.88882L10.0613 0.83391C10.0613 0.781414 10.0427 0.71803 9.9802 0.675019C9.80965 0.558384 8.7689 0 6.13966 0C3.11073 0 0.00378418 1.23566 0.00378418 7.17511C0.00378418 13.115 3.56101 14 6.55857 14C9.04053 14 10.5462 12.9831 10.5462 12.9831C10.6082 12.9501 10.615 12.867 10.615 12.8288L10.615 6.19536C10.615 6.08325 10.5201 5.99216 10.403 5.99216ZM33.7857 0.711669C33.786 0.684975 33.7807 0.658498 33.7702 0.63376C33.7598 0.609023 33.7443 0.586512 33.7247 0.567521C33.7052 0.54853 33.6819 0.533432 33.6562 0.523096C33.6305 0.512759 33.603 0.507387 33.5751 0.507289L31.0203 0.507289C30.9924 0.507388 30.9648 0.512753 30.9391 0.523078C30.9134 0.533402 30.89 0.548483 30.8704 0.567462C30.8507 0.58644 30.8352 0.608945 30.8246 0.633688C30.814 0.658431 30.8086 0.684929 30.8087 0.711669L30.8094 5.44531L26.8273 5.44531L26.8273 0.711669C26.8275 0.684965 26.8222 0.658482 26.8117 0.633744C26.8013 0.609005 26.7858 0.586496 26.7662 0.567508C26.7466 0.548519 26.7233 0.533425 26.6976 0.523091C26.6719 0.512757 26.6444 0.507387 26.6165 0.507289L24.0619 0.507289C24.0057 0.507574 23.9519 0.529263 23.9123 0.567588C23.8727 0.605914 23.8506 0.65774 23.8509 0.711669L23.8509 13.529C23.8509 13.642 23.9457 13.734 24.0619 13.734L26.6165 13.734C26.7333 13.734 26.8273 13.6419 26.8273 13.529L26.8273 8.04654L30.8094 8.04654L30.8024 13.529C30.8024 13.642 30.8973 13.734 31.0142 13.734L33.5749 13.734C33.692 13.734 33.7855 13.6419 33.7857 13.529L33.7857 0.711669ZM15.2238 2.39372C15.2238 1.51162 14.4863 0.798877 13.5764 0.798877C12.6675 0.798877 11.9294 1.51162 11.9294 2.39372C11.9294 3.27473 12.6675 3.98931 13.5764 3.98931C14.4863 3.98931 15.2238 3.27473 15.2238 2.39372ZM15.0412 10.8253L15.0412 4.90881C15.0413 4.85487 15.0191 4.80308 14.9795 4.76478C14.9399 4.72649 14.886 4.70482 14.8298 4.70454L12.2832 4.70454C12.1664 4.70454 12.0618 4.8201 12.0618 4.93253L12.0618 13.409C12.0618 13.6582 12.2237 13.7321 12.4333 13.7321L14.7277 13.7321C14.9794 13.7321 15.0412 13.6136 15.0412 13.4051L15.0412 10.8253ZM43.4946 4.72384L40.9594 4.72384C40.8432 4.72384 40.7485 4.81568 40.7485 4.92876L40.7485 11.2135C40.7485 11.2135 40.1044 11.6654 39.1904 11.6654C38.2763 11.6654 38.0338 11.2677 38.0338 10.4095L38.0338 4.92876C38.0338 4.81568 37.9393 4.72384 37.823 4.72384L35.25 4.72384C35.134 4.72384 35.0387 4.81568 35.0387 4.92876L35.0387 10.8244C35.0387 13.3734 36.5204 13.997 38.5589 13.997C40.231 13.997 41.5791 13.1113 41.5791 13.1113C41.5791 13.1113 41.6433 13.578 41.6723 13.6334C41.7015 13.6886 41.7771 13.7443 41.8589 13.7443L43.4958 13.7374C43.6118 13.7374 43.7071 13.6454 43.7071 13.5328L43.7062 4.92886C43.7062 4.81568 43.6114 4.72384 43.4946 4.72384ZM49.4235 11.6576C48.5442 11.6319 47.9477 11.2493 47.9477 11.2493L47.9477 7.19042C47.9477 7.19042 48.5361 6.84461 49.258 6.78274C50.1709 6.70437 51.0505 6.96879 51.0505 9.05669C51.0506 11.2585 50.6537 11.6931 49.4235 11.6576ZM50.4234 4.43602C48.9835 4.43602 48.0042 5.05197 48.0042 5.05197L48.0042 0.711776C48.0042 0.598591 47.9098 0.507289 47.7934 0.507289L45.2315 0.507289C45.2036 0.507416 45.176 0.512806 45.1503 0.523153C45.1246 0.5335 45.1013 0.5486 45.0817 0.56759C45.0621 0.58658 45.0466 0.609087 45.0361 0.633828C45.0255 0.658568 45.0202 0.685055 45.0203 0.711776L45.0203 13.529C45.0203 13.642 45.115 13.734 45.2318 13.734L47.0094 13.734C47.0893 13.734 47.1499 13.6944 47.1947 13.6252C47.2389 13.5563 47.3026 13.0343 47.3026 13.0343C47.3026 13.0343 48.3502 13.9861 50.3333 13.9861C52.6615 13.9861 53.9967 12.8538 53.9967 8.90308C53.9967 4.95225 51.8643 4.43602 50.4234 4.43602ZM22.3835 4.70346L20.4672 4.70346L20.4642 2.276C20.4642 2.18416 20.4149 2.13824 20.3041 2.13824L17.6927 2.13824C17.5911 2.13824 17.5366 2.18114 17.5366 2.2746L17.5366 4.78312C17.5366 4.78312 16.2279 5.08592 16.1395 5.1105C16.0953 5.12276 16.0565 5.14844 16.0289 5.18367C16.0013 5.2189 15.9864 5.26177 15.9864 5.30583L15.9864 6.88213C15.9864 6.99553 16.0809 7.08672 16.1977 7.08672L17.5366 7.08672L17.5366 10.8788C17.5366 13.6955 19.5972 13.9722 20.9877 13.9722C21.623 13.9722 22.383 13.7766 22.5085 13.732C22.5844 13.7053 22.6285 13.6299 22.6285 13.5482L22.6306 11.8142C22.6306 11.701 22.531 11.6097 22.4188 11.6097C22.3072 11.6097 22.0215 11.6533 21.7274 11.6533C20.7861 11.6533 20.4672 11.2336 20.4672 10.6904L20.467 7.08661L22.3835 7.08661C22.5003 7.08661 22.5949 6.99531 22.5949 6.88202L22.5949 4.90752C22.595 4.8808 22.5896 4.85433 22.5791 4.8296C22.5685 4.80488 22.553 4.7824 22.5333 4.76344C22.5137 4.74448 22.4904 4.72943 22.4646 4.71914C22.4389 4.70885 22.4114 4.70352 22.3835 4.70346Z" fill="#a793cc"/>
</svg>
