<svg width="49" height="57" viewBox="0 0 49 57" fill="none" xmlns="http://www.w3.org/2000/svg">
<g clip-path="url(#clip0_2_229)">
<path d="M11.7126 41.7221L8.30505 0.078125L49 0.161812L45.3968 41.7221L28.8061 46.5261L11.7126 41.7221Z" fill="#1B73BA"/>
<path d="M28.8061 42.5043V4.04431L45.5645 4.1001L42.5761 38.5103L28.8061 42.5043Z" fill="#1C88C7"/>
<path d="M41.4028 8.96021H15.6229L16.3213 13.9873H28.5547L16.5169 19.1546L17.2149 24.0144H34.951L34.3085 30.8012L28.3033 31.9745L22.8571 30.5781L22.438 26.7235H17.4384L18.1086 34.7398L28.834 37.7282L39.1127 34.4605L40.4255 18.7913H29.5599L41.4025 13.8758L41.4028 8.96021Z" fill="white"/>
</g>
<g clip-path="url(#clip1_2_229)">
<path d="M3.40754 51.6889L0 10.0442L40.6949 10.1279L37.0918 51.6889L20.501 56.4928L3.40754 51.6889Z" fill="#E34F26"/>
<path d="M20.501 52.4709V14.0103L37.2595 14.066L34.271 48.4766L20.501 52.4709Z" fill="#EF652A"/>
<path d="M32.6511 23.6185L33.1257 18.5349H7.34576L8.77009 34.1204H26.562L25.8642 40.7678L20.1663 42.3037L14.3847 40.628L14.0775 36.6619H8.96568L9.66406 44.7618L20.166 47.6945L30.7516 44.7618L32.1759 28.9531H13.4907L12.96 23.6185H32.6511Z" fill="white"/>
</g>
<defs>
<clipPath id="clip0_2_229">
<rect width="40.6949" height="46.6043" fill="white" transform="translate(8.30505)"/>
</clipPath>
<clipPath id="clip1_2_229">
<rect width="40.6949" height="46.6043" fill="white" transform="translate(0 9.96631)"/>
</clipPath>
</defs>
</svg>
