<svg width="49" height="49" viewBox="0 0 49 49" fill="none" xmlns="http://www.w3.org/2000/svg">
<g clip-path="url(#clip0_2_140)">
<path d="M0 0H49V49H0V0Z" fill="#F0DB4F"/>
<path d="M44.9897 37.3136C44.631 35.0779 43.1731 33.2008 38.8553 31.4495C37.3555 30.7601 35.6834 30.2664 35.185 29.1299C35.008 28.4685 34.9847 28.0959 35.0965 27.6953C35.4179 26.3958 36.9689 25.9905 38.1986 26.3632C38.9904 26.6287 39.7403 27.2389 40.1921 28.2123C42.3068 26.843 42.3021 26.8522 43.7786 25.9114C43.2383 25.073 42.9495 24.6864 42.5955 24.3277C41.324 22.9071 39.5913 22.1758 36.8199 22.2317C36.3401 22.2923 35.8558 22.3575 35.376 22.4181C33.9926 22.7674 32.6744 23.494 31.9012 24.4675C29.5817 27.0991 30.2431 31.7056 33.0657 33.6014C35.8464 35.6881 39.9313 36.1632 40.453 38.1148C40.9607 40.5043 38.697 41.2774 36.4473 41.0027C34.7891 40.658 33.8669 39.8149 32.8701 38.2825C31.0349 39.3445 31.0349 39.3445 29.1485 40.4297C29.5957 41.4079 30.0661 41.8504 30.816 42.6981C34.3653 46.2986 43.2476 46.1216 44.8406 40.6719C44.9058 40.4856 45.3344 39.2373 44.9897 37.3136ZM26.6379 22.5205H22.0547C22.0547 26.4796 22.0361 30.4108 22.0361 34.3699C22.0361 36.8898 22.1665 39.2 21.7566 39.908C21.0859 41.3007 19.3485 41.1284 18.5567 40.8582C17.7509 40.4623 17.341 39.8987 16.8659 39.1022C16.7355 38.874 16.6377 38.697 16.6051 38.683C15.3615 39.4422 14.1224 40.2061 12.8788 40.9653C13.4983 42.2369 14.4112 43.3408 15.5803 44.0581C17.327 45.1061 19.6745 45.4275 22.1292 44.8639C23.7269 44.3981 25.1055 43.434 25.8275 41.9668C26.8708 40.0431 26.6473 37.7142 26.6379 35.1384C26.6612 30.9371 26.6379 26.7358 26.6379 22.5205Z" fill="black"/>
</g>
<defs>
<clipPath id="clip0_2_140">
<rect width="49" height="49" fill="white"/>
</clipPath>
</defs>
</svg>
