<svg width="22" height="22" viewBox="0 0 22 22" fill="none" xmlns="http://www.w3.org/2000/svg">
<g clip-path="url(#clip0_200_2)">
<path d="M11 3C11.2652 3 11.5196 3.10536 11.7071 3.29289C11.8946 3.48043 12 3.73478 12 4V9.268L16.562 6.634C16.6758 6.5673 16.8016 6.52377 16.9323 6.5059C17.0629 6.48804 17.1958 6.49619 17.3233 6.5299C17.4508 6.56361 17.5704 6.62221 17.6752 6.70231C17.7799 6.78242 17.8678 6.88246 17.9338 6.99667C17.9997 7.11088 18.0424 7.23701 18.0594 7.36779C18.0764 7.49857 18.0674 7.63142 18.0328 7.75869C17.9983 7.88597 17.9389 8.00515 17.8581 8.10937C17.7773 8.2136 17.6766 8.30082 17.562 8.366L13 11L17.562 13.634C17.6766 13.6992 17.7773 13.7864 17.8581 13.8906C17.9389 13.9949 17.9983 14.114 18.0328 14.2413C18.0674 14.3686 18.0764 14.5014 18.0594 14.6322C18.0424 14.763 17.9997 14.8891 17.9338 15.0033C17.8678 15.1175 17.7799 15.2176 17.6752 15.2977C17.5704 15.3778 17.4508 15.4364 17.3233 15.4701C17.1958 15.5038 17.0629 15.512 16.9323 15.4941C16.8016 15.4762 16.6758 15.4327 16.562 15.366L12 12.732V18C12 18.2652 11.8946 18.5196 11.7071 18.7071C11.5196 18.8946 11.2652 19 11 19C10.7348 19 10.4804 18.8946 10.2929 18.7071C10.1054 18.5196 10 18.2652 10 18V12.732L5.438 15.366C5.32422 15.4327 5.19838 15.4762 5.06772 15.4941C4.93706 15.512 4.80415 15.5038 4.67665 15.4701C4.54915 15.4364 4.42958 15.3778 4.32482 15.2977C4.22005 15.2176 4.13217 15.1175 4.06623 15.0033C4.00029 14.8891 3.95759 14.763 3.94059 14.6322C3.92359 14.5014 3.93263 14.3686 3.96719 14.2413C4.00174 14.114 4.06113 13.9949 4.14193 13.8906C4.22273 13.7864 4.32335 13.6992 4.438 13.634L9 11L4.438 8.366C4.21019 8.23245 4.04445 8.01421 3.97696 7.75892C3.90946 7.50362 3.94568 7.23199 4.07772 7.00331C4.20976 6.77462 4.42689 6.60744 4.68173 6.53825C4.93657 6.46906 5.20844 6.50348 5.438 6.634L10 9.268V4C10 3.73478 10.1054 3.48043 10.2929 3.29289C10.4804 3.10536 10.7348 3 11 3Z" fill="#0F1012"/>
</g>
<rect x="0.5" y="0.5" width="21" height="21" rx="6.5" stroke="black"/>
<defs>
<clipPath id="clip0_200_2">
<rect width="16" height="16" fill="white" transform="translate(3 3)"/>
</clipPath>
</defs>
</svg>
