<svg width="49" height="51" viewBox="0 0 49 51" fill="none" xmlns="http://www.w3.org/2000/svg">
<g clip-path="url(#clip0_2_101)">
<path d="M48.8101 30.5123C48.5163 29.615 47.7467 28.99 46.7513 28.8401C46.282 28.7694 45.7445 28.7995 45.1085 28.9317C43.9999 29.1624 43.1774 29.2502 42.5772 29.2672C44.8428 25.4099 46.6851 21.0111 47.7457 16.8705C49.4607 10.1751 48.5442 7.12497 47.4733 5.74532C44.6392 2.09356 40.5042 0.131792 35.5158 0.0717658C32.8547 0.0389539 30.5186 0.568769 29.2999 0.949773C28.1652 0.747883 26.9452 0.635165 25.6651 0.61432C23.2654 0.575718 21.1452 1.10322 19.3336 2.18736C18.3306 1.84534 16.7209 1.3632 14.8619 1.05554C10.4898 0.331752 6.96603 0.89573 4.38855 2.73184C1.26748 4.95494 -0.179359 8.81748 0.0882273 14.2121C0.173212 15.9249 1.12335 21.1362 2.61938 26.0785C3.47918 28.9192 4.39602 31.2782 5.34443 33.0905C6.68945 35.6605 8.12863 37.1739 9.74429 37.7174C10.6498 38.0216 12.2952 38.2347 14.0257 36.7813C14.245 37.0492 14.5377 37.3154 14.926 37.5626C15.4193 37.8763 16.0224 38.1326 16.6248 38.2845C18.7955 38.8317 20.8288 38.6948 22.5635 37.9278C22.5742 38.2389 22.5825 38.5362 22.5894 38.7929C22.6009 39.2092 22.6123 39.6174 22.6275 39.9992C22.7302 42.5805 22.9044 44.5876 23.4205 45.992C23.4488 46.0692 23.4869 46.1869 23.5271 46.3118C23.7845 47.1066 24.215 48.4372 25.3102 49.4793C26.4443 50.5588 27.8161 50.8898 29.0725 50.8898C29.7026 50.8898 30.3038 50.8064 30.8311 50.6926C32.7107 50.2863 34.8455 49.6675 36.3898 47.4502C37.8498 45.3541 38.5595 42.197 38.688 37.2225C38.7046 37.0818 38.7199 36.9475 38.7347 36.8195L38.7653 36.5566L39.1093 36.5871L39.1979 36.5931C41.1123 36.6811 43.4532 36.2718 44.8909 35.5983C46.0269 35.0668 49.6672 33.1288 48.8101 30.5123Z" fill="black"/>
<path d="M45.5367 31.0211C39.8443 32.2052 39.4529 30.2617 39.4529 30.2617C45.463 21.2688 47.9756 9.85353 45.8075 7.0597C39.8923 -0.56134 29.653 3.04295 29.4821 3.13637L29.4272 3.1464C28.3025 2.91093 27.044 2.7708 25.6293 2.74745C23.0537 2.70499 21.0999 3.42839 19.6172 4.56214C19.6172 4.56214 1.35134 -3.0259 2.20099 14.1054C2.38168 17.7498 7.38121 41.6814 13.3443 34.453C15.5238 31.8097 17.6299 29.5748 17.6299 29.5748C18.6757 30.2755 19.9279 30.6329 21.2406 30.5046L21.3426 30.4173C21.3108 30.7454 21.3253 31.0664 21.3833 31.4464C19.8471 33.1772 20.2986 33.481 17.2277 34.1185C14.1202 34.7643 15.9457 35.9139 17.1376 36.2146C18.5825 36.5788 21.9252 37.0949 24.1838 33.9066L24.0938 34.2704C24.6956 34.7566 25.1183 37.4325 25.0474 39.8584C24.9766 42.2842 24.9293 43.9497 25.4034 45.2506C25.8779 46.5515 26.3505 49.4785 30.3877 48.6063C33.7608 47.8773 35.5089 45.9883 35.7522 42.8372C35.9247 40.5971 36.3153 40.9283 36.3398 38.9254L36.6532 37.9774C37.0143 34.9407 36.7106 33.961 38.7887 34.4167L39.294 34.4615C40.8233 34.5315 42.8254 34.2133 44.0005 33.6626C46.5305 32.4787 48.0311 30.5017 45.5363 31.0211H45.5367Z" fill="#336791"/>
<path d="M20.6864 15.7353C20.1734 15.6633 19.7089 15.7299 19.4738 15.9094C19.3418 16.0104 19.3008 16.1273 19.2897 16.2078C19.2602 16.4211 19.4084 16.6569 19.4995 16.7785C19.7571 17.1229 20.1334 17.3595 20.5059 17.4116C20.5599 17.4193 20.6137 17.4228 20.6671 17.4228C21.2882 17.4228 21.853 16.9351 21.9028 16.5751C21.965 16.1242 21.3159 15.8235 20.6864 15.7353ZM37.6802 15.7496C37.6312 15.3962 37.0076 15.2954 36.4158 15.3784C35.8247 15.4614 35.2516 15.7305 35.2995 16.0847C35.3378 16.3601 35.831 16.8303 36.4148 16.8303C36.4642 16.8303 36.514 16.827 36.5641 16.8198C36.9538 16.7654 37.2398 16.5159 37.3757 16.3721C37.5824 16.1528 37.7022 15.9084 37.6802 15.7496Z" fill="white"/>
<path d="M47.4308 30.8865C47.2138 30.2247 46.5152 30.0118 45.3545 30.2534C41.9082 30.9707 40.674 30.4739 40.2688 30.173C42.9475 26.058 45.1512 21.0837 46.34 16.4427C46.9031 14.2443 47.2142 12.2027 47.2396 10.5385C47.2678 8.71207 46.9592 7.36987 46.323 6.54996C43.7578 3.24465 39.9928 1.47165 35.4354 1.42301C32.3023 1.3875 29.6551 2.19602 29.142 2.42339C28.0613 2.1524 26.8832 1.98602 25.6006 1.96479C23.2486 1.92638 21.2155 2.49422 19.5322 3.65171C18.8011 3.37725 16.9115 2.72313 14.6006 2.34772C10.6056 1.69921 7.43095 2.19061 5.16547 3.80901C2.46224 5.74028 1.21427 9.19247 1.45602 14.0695C1.53736 15.7103 2.46454 20.7579 3.92764 25.5918C5.85357 31.9543 7.94718 35.556 10.1499 36.297C10.4077 36.3837 10.705 36.4443 11.0328 36.4443C11.8364 36.4443 12.8215 36.0791 13.8465 34.8365C15.0967 33.3242 16.3899 31.8486 17.7246 30.4115C18.5905 30.8802 19.5418 31.1419 20.5147 31.1681C20.5166 31.1938 20.5191 31.2195 20.5214 31.2449C20.3539 31.4463 20.1899 31.6506 20.0295 31.8578C19.3554 32.7207 19.2151 32.9004 17.0451 33.3509C16.4278 33.4794 14.7884 33.8201 14.7643 34.9789C14.7383 36.2451 16.7023 36.7768 16.926 36.8332C17.7058 37.0301 18.4571 37.1271 19.1735 37.1271C20.9159 37.1271 22.4493 36.5497 23.6746 35.4323C23.6369 39.9461 23.8236 44.3938 24.361 45.7489C24.8013 46.8584 25.8766 49.5696 29.2733 49.5694C29.7717 49.5694 30.3203 49.5109 30.9238 49.3804C34.4688 48.6142 36.0083 47.0342 36.6038 43.5509C36.9225 41.6893 37.4693 37.2441 37.7266 34.8597C38.2694 35.0305 38.9682 35.1086 39.7237 35.1084C41.2993 35.1084 43.1175 34.7709 44.2577 34.2372C45.5386 33.6373 47.85 32.1654 47.4308 30.8865ZM38.9887 14.774C38.977 15.4779 38.8809 16.1169 38.7791 16.784C38.6694 17.5014 38.5561 18.2431 38.5276 19.1435C38.4994 20.0198 38.608 20.9308 38.7129 21.8119C38.9249 23.5915 39.1426 25.4235 38.3002 27.2313C38.1603 26.9813 38.0356 26.7229 37.927 26.4575C37.8223 26.2016 37.5949 25.7905 37.28 25.2215C36.0552 23.0065 33.187 17.8195 34.6552 15.7029C35.0926 15.0729 36.2026 14.4252 38.9887 14.774ZM35.6115 2.8484C39.695 2.9393 42.9251 4.47972 45.2121 7.42662C46.9661 9.68697 45.0346 19.9719 39.4431 28.8449C39.3868 28.7728 39.3303 28.7009 39.2735 28.6293L39.2027 28.5401C40.6476 26.1338 40.3651 23.753 40.1136 21.6423C40.0102 20.776 39.9126 19.9579 39.9375 19.1893C39.9631 18.3748 40.0699 17.6761 40.1733 17.0005C40.3002 16.1681 40.4294 15.3067 40.3938 14.2912C40.4204 14.1847 40.4311 14.0589 40.4171 13.9095C40.3262 12.9357 39.2237 10.0215 36.9766 7.38377C35.7474 5.94101 33.9549 4.32647 31.5074 3.23751C32.5601 3.01747 33.9997 2.8123 35.6115 2.8484ZM12.7618 33.927C11.6325 35.2962 10.8527 35.0337 10.5962 34.9477C8.92526 34.3856 6.98632 30.8242 5.27687 25.1767C3.79768 20.29 2.93329 15.3762 2.86477 13.9983C2.64886 9.64045 3.69643 6.60342 5.97856 4.97132C9.69261 2.31549 15.7989 3.90513 18.2525 4.71134C18.2173 4.74647 18.1805 4.77928 18.1457 4.81498C14.1193 8.91531 14.2148 15.9208 14.2247 16.3491C14.2243 16.5143 14.2381 16.7483 14.2569 17.07C14.3262 18.2484 14.4552 20.4413 14.1107 22.9248C13.7906 25.2327 14.4961 27.4915 16.046 29.1222C16.205 29.2892 16.3722 29.4482 16.5469 29.5986C15.857 30.3436 14.3578 31.9911 12.7618 33.927ZM17.0644 28.138C15.8153 26.8236 15.248 24.9954 15.5077 23.1217C15.8714 20.4983 15.7372 18.2134 15.6651 16.9859C15.6549 16.8141 15.6459 16.6635 15.6408 16.5448C16.2289 16.0189 18.9548 14.5462 20.8987 14.9953C21.7857 15.2001 22.3262 15.8093 22.5509 16.8569C23.7139 22.2811 22.7048 24.5419 21.894 26.3587C21.7269 26.7329 21.569 27.0867 21.4342 27.4527L21.3297 27.7356C21.0652 28.4509 20.8191 29.116 20.6665 29.7476C19.3385 29.7437 18.0467 29.1716 17.0644 28.1379V28.138ZM17.2683 35.4532C16.8805 35.3555 16.5317 35.1858 16.3271 35.0451C16.4981 34.9641 16.8022 34.8537 17.3297 34.744C19.8825 34.2142 20.2768 33.8402 21.1377 32.7379C21.3351 32.485 21.5588 32.1986 21.8687 31.8496L21.8691 31.8493C22.3306 31.3281 22.5417 31.4165 22.9245 31.5767C23.2348 31.706 23.537 32.0982 23.6595 32.5298C23.7175 32.7336 23.7826 33.1204 23.5696 33.4215C21.7711 35.9608 19.1504 35.9282 17.2683 35.4532ZM30.6282 47.9896C27.5053 48.6644 26.3995 47.0576 25.6708 45.2207C25.2005 44.0348 24.9693 38.6873 25.1334 32.7817C25.1355 32.7031 25.1244 32.6273 25.1029 32.5559C25.0837 32.4149 25.0546 32.2754 25.0156 32.1386C24.7718 31.2793 24.1775 30.5605 23.4645 30.2625C23.1812 30.1442 22.6613 29.9271 22.0366 30.0882C22.1698 29.5347 22.4008 28.9095 22.6514 28.2326L22.7565 27.9479C22.8748 27.627 23.0233 27.2944 23.1802 26.9423C24.0287 25.0416 25.1908 22.438 23.9296 16.5564C23.4572 14.3534 21.8796 13.2776 19.4882 13.5275C18.0546 13.6771 16.7429 14.2604 16.0886 14.5948C15.948 14.6666 15.8193 14.7361 15.6991 14.8037C15.8817 12.5841 16.5716 8.43587 19.1521 5.81131C20.7769 4.15913 22.9408 3.34308 25.5772 3.38709C30.772 3.47279 34.1032 6.16104 35.9832 8.40132C37.6033 10.3316 38.4805 12.2762 38.8306 13.325C36.1978 13.055 34.4072 13.579 33.4995 14.8876C31.5248 17.7342 34.5798 23.2589 36.0481 25.9142C36.3174 26.4008 36.5498 26.8213 36.6229 27.0001C37.101 28.1685 37.72 28.9487 38.172 29.5181C38.3105 29.6926 38.4449 29.8618 38.5471 30.0097C37.7497 30.2415 36.3174 30.7771 36.448 33.4543C36.3427 34.7977 35.5941 41.0872 35.2138 43.3093C34.7117 46.245 33.6404 47.3384 30.6282 47.9898V47.9896ZM43.6638 32.9471C42.8484 33.3287 41.4839 33.6149 40.1877 33.6765C38.7559 33.744 38.0271 33.5148 37.8556 33.3737C37.7752 31.7053 38.3909 31.531 39.0427 31.3465C39.1451 31.3175 39.245 31.2891 39.3414 31.2552C39.4014 31.3044 39.467 31.3532 39.539 31.4011C40.6897 32.167 42.7422 32.2496 45.6399 31.6464L45.6716 31.64C45.2808 32.0085 44.612 32.503 43.6638 32.9471Z" fill="white"/>
</g>
<defs>
<clipPath id="clip0_2_101">
<rect width="49" height="50.96" fill="white"/>
</clipPath>
</defs>
</svg>
