<svg width="49" height="49" viewBox="0 0 49 49" fill="none" xmlns="http://www.w3.org/2000/svg">
<g clip-path="url(#clip0_2_92)">
<path d="M24.2902 0.0137939C11.8822 0.0137939 12.6569 5.41628 12.6569 5.41628L12.6707 11.0134H24.5115V12.6938H7.9677C7.9677 12.6938 0.027771 11.7897 0.027771 24.3597C0.027771 36.93 6.95794 36.4842 6.95794 36.4842H11.0938V30.6511C11.0938 30.6511 10.8709 23.6931 17.9134 23.6931H29.6573C29.6573 23.6931 36.2555 23.8001 36.2555 17.2906V6.52753C36.2555 6.52753 37.2576 0.0137939 24.2902 0.0137939ZM17.7612 3.77776C18.041 3.77751 18.3181 3.83266 18.5767 3.94005C18.8353 4.04744 19.0702 4.20496 19.268 4.40361C19.4659 4.60226 19.6228 4.83813 19.7297 5.09772C19.8367 5.35732 19.8916 5.63554 19.8914 5.91647C19.8916 6.1974 19.8367 6.47562 19.7297 6.73521C19.6228 6.99481 19.4659 7.23068 19.268 7.42933C19.0702 7.62797 18.8353 7.7855 18.5767 7.89289C18.3181 8.00028 18.041 8.05543 17.7612 8.05517C17.4814 8.05543 17.2043 8.00028 16.9458 7.89289C16.6872 7.7855 16.4523 7.62797 16.2544 7.42933C16.0566 7.23068 15.8997 6.99481 15.7927 6.73521C15.6858 6.47562 15.6308 6.1974 15.6311 5.91647C15.6308 5.63554 15.6858 5.35732 15.7927 5.09772C15.8997 4.83813 16.0566 4.60226 16.2544 4.40361C16.4523 4.20496 16.6872 4.04744 16.9458 3.94005C17.2043 3.83266 17.4814 3.77751 17.7612 3.77776Z" fill="url(#paint0_linear_2_92)"/>
<path d="M24.6426 48.8321C37.0507 48.8321 36.2759 43.4296 36.2759 43.4296L36.2622 37.8327H24.4212V36.1523H40.9649C40.9649 36.1523 48.9049 37.0564 48.9049 24.486C48.9049 11.9159 41.9747 12.3617 41.9747 12.3617H37.8388V18.1946C37.8388 18.1946 38.0618 25.1526 31.0193 25.1526H19.2753C19.2753 25.1526 12.6772 25.0456 12.6772 31.5553V42.3186C12.6772 42.3186 11.6753 48.8321 24.6424 48.8321H24.6426ZM31.1716 45.0685C30.8918 45.0688 30.6147 45.0136 30.3561 44.9062C30.0976 44.7988 29.8627 44.6413 29.6648 44.4427C29.467 44.244 29.3101 44.0082 29.2031 43.7486C29.0961 43.489 29.0412 43.2107 29.0415 42.9298C29.0412 42.6489 29.0961 42.3706 29.203 42.111C29.31 41.8514 29.4669 41.6155 29.6647 41.4168C29.8626 41.2182 30.0975 41.0606 30.3561 40.9532C30.6147 40.8458 30.8918 40.7907 31.1716 40.7909C31.4514 40.7907 31.7285 40.8458 31.9871 40.9532C32.2456 41.0606 32.4806 41.2181 32.6784 41.4168C32.8763 41.6154 33.0332 41.8513 33.1401 42.1109C33.2471 42.3705 33.302 42.6487 33.3018 42.9296C33.302 43.2106 33.2471 43.4888 33.1401 43.7484C33.0332 44.008 32.8763 44.2438 32.6784 44.4425C32.4806 44.6411 32.2456 44.7987 31.9871 44.906C31.7285 45.0134 31.4514 45.0688 31.1716 45.0685Z" fill="url(#paint1_linear_2_92)"/>
</g>
<defs>
<linearGradient id="paint0_linear_2_92" x1="469.735" y1="439.105" x2="2901.55" y2="2837.03" gradientUnits="userSpaceOnUse">
<stop stop-color="#387EB8"/>
<stop offset="1" stop-color="#366994"/>
</linearGradient>
<linearGradient id="paint1_linear_2_92" x1="705.966" y1="762.925" x2="3316.97" y2="3221.32" gradientUnits="userSpaceOnUse">
<stop stop-color="#FFE052"/>
<stop offset="1" stop-color="#FFC331"/>
</linearGradient>
<clipPath id="clip0_2_92">
<rect width="49" height="49" fill="white"/>
</clipPath>
</defs>
</svg>
