<svg width="49" height="56" viewBox="0 0 49 56" fill="none" xmlns="http://www.w3.org/2000/svg">
<path d="M49 27.9222C49 24.6761 44.935 21.5999 38.7026 19.6922C40.1409 13.34 39.5016 8.2862 36.6851 6.66818C36.0359 6.28864 35.2768 6.10886 34.4478 6.10886V8.33614C34.9073 8.33614 35.2768 8.42603 35.5864 8.59582C36.9448 9.37487 37.534 12.3412 37.0746 16.1566C36.9647 17.0954 36.785 18.0842 36.5652 19.093C34.6076 18.6136 32.4702 18.244 30.223 18.0043C28.8746 16.1566 27.4764 14.4786 26.0681 13.0104C29.3241 9.98412 32.3804 8.32615 34.4578 8.32615V6.09888C31.7112 6.09888 28.1156 8.05648 24.48 11.4523C20.8445 8.07646 17.2489 6.13883 14.5022 6.13883V8.3661C16.5697 8.3661 19.636 10.0141 22.892 13.0204C21.4937 14.4886 20.0954 16.1566 18.767 18.0043C16.5098 18.244 14.3724 18.6136 12.4148 19.103C12.1851 18.1042 12.0153 17.1354 11.8954 16.2065C11.426 12.3912 12.0053 9.4248 13.3536 8.63577C13.6533 8.45599 14.0428 8.37609 14.5022 8.37609V6.14882C13.6633 6.14882 12.9042 6.3286 12.245 6.70813C9.43844 8.32615 8.80921 13.37 10.2574 19.7022C4.04505 21.6199 0 24.6861 0 27.9222C0 31.1682 4.06502 34.2444 10.2974 36.1521C8.85915 42.5043 9.49837 47.5581 12.3149 49.1761C12.9641 49.5557 13.7232 49.7354 14.5622 49.7354C17.3088 49.7354 20.9044 47.7778 24.54 44.382C28.1755 47.7579 31.7711 49.6955 34.5177 49.6955C35.3567 49.6955 36.1158 49.5157 36.775 49.1362C39.5815 47.5182 40.2108 42.4743 38.7625 36.1421C44.955 34.2344 49 31.1582 49 27.9222ZM35.9959 21.2603C35.6264 22.5487 35.1669 23.8771 34.6476 25.2055C34.2381 24.4065 33.8086 23.6074 33.3392 22.8084C32.8797 22.0094 32.3903 21.2303 31.9009 20.4713C33.3192 20.681 34.6875 20.9407 35.9959 21.2603ZM31.4215 31.8973C30.6425 33.2456 29.8435 34.5241 29.0145 35.7126C27.5263 35.8425 26.0181 35.9124 24.5 35.9124C22.9918 35.9124 21.4837 35.8425 20.0055 35.7226C19.1765 34.5341 18.3675 33.2656 17.5885 31.9272C16.8294 30.6189 16.1402 29.2905 15.511 27.9521C16.1303 26.6138 16.8294 25.2754 17.5785 23.967C18.3575 22.6186 19.1565 21.3402 19.9855 20.1517C21.4737 20.0218 22.9819 19.9519 24.5 19.9519C26.0082 19.9519 27.5163 20.0218 28.9945 20.1417C29.8235 21.3302 30.6325 22.5987 31.4115 23.937C32.1706 25.2454 32.8598 26.5738 33.489 27.9122C32.8598 29.2505 32.1706 30.5889 31.4215 31.8973ZM34.6476 30.5989C35.1869 31.9372 35.6464 33.2756 36.0259 34.574C34.7175 34.8936 33.3392 35.1633 31.9109 35.373C32.4003 34.604 32.8897 33.8149 33.3492 33.0059C33.8086 32.2069 34.2381 31.3979 34.6476 30.5989ZM24.52 41.2558C23.5911 40.297 22.6623 39.2283 21.7434 38.0597C22.6423 38.0997 23.5612 38.1297 24.49 38.1297C25.4289 38.1297 26.3577 38.1097 27.2666 38.0597C26.3677 39.2283 25.4389 40.297 24.52 41.2558ZM17.0891 35.373C15.6708 35.1633 14.3025 34.9036 12.9941 34.584C13.3636 33.2956 13.8231 31.9672 14.3424 30.6388C14.7519 31.4378 15.1814 32.2369 15.6508 33.0359C16.1203 33.8349 16.5997 34.614 17.0891 35.373ZM24.47 14.5885C25.3989 15.5473 26.3278 16.616 27.2466 17.7846C26.3477 17.7446 25.4289 17.7147 24.5 17.7147C23.5612 17.7147 22.6323 17.7346 21.7234 17.7846C22.6223 16.616 23.5512 15.5473 24.47 14.5885ZM17.0791 20.4713C16.5897 21.2403 16.1003 22.0294 15.6408 22.8384C15.1814 23.6374 14.7519 24.4364 14.3424 25.2354C13.8031 23.8971 13.3437 22.5587 12.9641 21.2603C14.2725 20.9507 15.6508 20.681 17.0791 20.4713ZM8.04016 32.976C4.50449 31.4678 2.21728 29.4902 2.21728 27.9222C2.21728 26.3541 4.50449 24.3665 8.04016 22.8683C8.89911 22.4988 9.83795 22.1692 10.8068 21.8596C11.3761 23.8172 12.1252 25.8547 13.054 27.9421C12.1351 30.0196 11.396 32.0471 10.8367 33.9947C9.84794 33.6851 8.90909 33.3455 8.04016 32.976ZM13.4136 47.2485C12.0552 46.4694 11.466 43.5031 11.9254 39.6877C12.0353 38.7489 12.215 37.7601 12.4348 36.7513C14.3924 37.2308 16.5298 37.6003 18.777 37.84C20.1254 39.6877 21.5236 41.3657 22.9319 42.8339C19.6759 45.8602 16.6196 47.5182 14.5422 47.5182C14.0927 47.5082 13.7132 47.4183 13.4136 47.2485ZM37.1046 39.6378C37.574 43.4531 36.9947 46.4195 35.6464 47.2085C35.3467 47.3883 34.9572 47.4682 34.4978 47.4682C32.4303 47.4682 29.364 45.8202 26.108 42.8139C27.5063 41.3457 28.9046 39.6778 30.233 37.83C32.4902 37.5903 34.6276 37.2208 36.5852 36.7314C36.8149 37.7401 36.9947 38.7089 37.1046 39.6378ZM40.9499 32.976C40.0909 33.3455 39.1521 33.6751 38.1832 33.9847C37.6139 32.0271 36.8649 29.9896 35.936 27.9022C36.8549 25.8247 37.594 23.7972 38.1533 21.8496C39.1421 22.1592 40.0809 22.4988 40.9598 22.8683C44.4955 24.3765 46.7827 26.3541 46.7827 27.9222C46.7727 29.4902 44.4855 31.4778 40.9499 32.976Z" fill="#61DAFB"/>
<path d="M24.49 32.4865C27.0109 32.4865 29.0544 30.4429 29.0544 27.9221C29.0544 25.4012 27.0109 23.3577 24.49 23.3577C21.9692 23.3577 19.9256 25.4012 19.9256 27.9221C19.9256 30.4429 21.9692 32.4865 24.49 32.4865Z" fill="#61DAFB"/>
</svg>
