<svg width="49" height="56" viewBox="0 0 49 56" fill="none" xmlns="http://www.w3.org/2000/svg">
<g clip-path="url(#clip0_2_183)">
<path d="M42.1668 31.112C40.4537 31.1217 38.9703 31.5331 37.7262 32.1457C37.2668 31.2365 36.8074 30.4421 36.7309 29.8488C36.6448 29.1598 36.5395 28.7386 36.6448 27.9156C36.75 27.0925 37.2285 25.9249 37.2285 25.8292C37.2188 25.7431 37.1231 25.322 36.1375 25.3124C35.1518 25.3029 34.3 25.5038 34.2043 25.7622C34.1086 26.0206 33.9172 26.614 33.7928 27.2265C33.6205 28.1261 31.8213 31.313 30.7973 32.9878C30.4623 32.337 30.1752 31.7628 30.1177 31.3033C30.0316 30.6144 29.9263 30.1932 30.0316 29.3702C30.1369 28.5471 30.6154 27.3796 30.6154 27.2839C30.6059 27.1978 30.5102 26.7767 29.5245 26.7671C28.5387 26.7575 27.687 26.9585 27.5913 27.2169C27.4956 27.4753 27.3903 28.0878 27.1798 28.6812C26.9787 29.2745 24.5861 34.5956 23.9641 35.9833C23.6482 36.6915 23.3708 37.2562 23.1697 37.639C22.9687 38.0218 23.1602 37.6677 23.141 37.706C22.9687 38.0314 22.873 38.2132 22.873 38.2132V38.2229C22.7391 38.4621 22.5955 38.6917 22.5284 38.6917C22.4806 38.6917 22.3849 38.0505 22.5476 37.1701C22.9017 35.323 23.763 32.4424 23.7535 32.3371C23.7535 32.2893 23.9161 31.782 23.1983 31.5236C22.4997 31.2653 22.251 31.6959 22.1935 31.6959C22.136 31.6959 22.0882 31.849 22.0882 31.849C22.0882 31.849 22.8634 28.6048 20.6048 28.6048C19.1884 28.6048 17.236 30.1456 16.2694 31.5525C15.6569 31.8874 14.3554 32.5955 12.9772 33.3517C12.4509 33.6388 11.9054 33.945 11.3886 34.2226L11.2834 34.1075C8.54628 31.1886 3.48359 29.1214 3.69413 25.1976C3.77069 23.7716 4.26835 20.0105 13.4177 15.455C20.9112 11.7226 26.9118 12.7466 27.9549 15.0243C29.4383 18.2782 24.7488 24.3267 16.9587 25.1976C13.9919 25.5325 12.4318 24.3841 12.0395 23.9534C11.628 23.5036 11.5706 23.4845 11.4175 23.5706C11.1686 23.7046 11.3218 24.1066 11.4175 24.3458C11.6472 24.9487 12.6042 26.0206 14.2311 26.5566C15.657 27.0255 19.1407 27.2839 23.3517 25.657C28.0698 23.829 31.7544 18.7568 30.6729 14.5171C29.5724 10.2009 22.4138 8.78449 15.6475 11.1866C11.6184 12.6222 7.25429 14.8616 4.11523 17.7997C0.382804 21.2833 -0.210555 24.3267 0.0382728 25.59C0.909267 30.0976 7.1203 33.0357 9.60859 35.2081C9.48417 35.275 9.36933 35.342 9.26406 35.3995C8.01991 36.0119 3.28261 38.4907 2.09589 41.1129C0.756046 44.0797 2.30644 46.214 3.34003 46.5011C6.53652 47.3911 9.80956 45.7929 11.5801 43.1611C13.3409 40.5292 13.1305 37.1126 12.317 35.5527L12.2882 35.4952L13.2643 34.921C13.8961 34.5478 14.5182 34.2032 15.0636 33.9065C14.7574 34.7391 14.5372 35.7248 14.4225 37.1604C14.2885 38.8448 14.9775 41.0268 15.8867 41.8881C16.2887 42.2613 16.7672 42.2709 17.0639 42.2709C18.1166 42.2709 18.5951 41.3999 19.1215 40.3569C19.7723 39.084 20.3465 37.6102 20.3465 37.6102C20.3465 37.6102 19.6287 41.601 21.5906 41.601C22.3084 41.601 23.0262 40.6727 23.3516 40.1942V40.2037C23.3516 40.2037 23.3707 40.175 23.409 40.108C23.4491 40.0487 23.4874 39.988 23.5238 39.9263V39.9072C23.8109 39.4095 24.4521 38.2706 25.4092 36.3853C26.6436 33.9544 27.8305 30.9111 27.8305 30.9111C27.8305 30.9111 27.9453 31.6575 28.2994 32.8825C28.5099 33.61 28.9692 34.4042 29.3233 35.1794C29.0362 35.5814 28.864 35.8111 28.864 35.8111L28.8735 35.8207C28.6439 36.127 28.3854 36.4525 28.1176 36.7778C27.1414 37.9453 25.9738 39.2757 25.8207 39.6585C25.6389 40.1082 25.6771 40.4432 26.0312 40.7112C26.2896 40.9027 26.749 40.9408 27.2371 40.9027C28.1176 40.8451 28.7301 40.6251 29.0363 40.491C29.5148 40.3188 30.0603 40.0604 30.5867 39.6776C31.5437 38.9695 32.1275 37.9646 32.0701 36.6247C32.0414 35.8878 31.8021 35.1605 31.5055 34.4714C31.5916 34.347 31.6778 34.2225 31.7639 34.0886C33.276 31.8778 34.4435 29.447 34.4435 29.447C34.4435 29.447 34.5584 30.1935 34.9125 31.4185C35.0942 32.0405 35.458 32.7201 35.7834 33.3901C34.367 34.5481 33.4769 35.8879 33.1707 36.7684C32.606 38.3953 33.0463 39.1322 33.8789 39.3045C34.252 39.3811 34.7881 39.2088 35.1899 39.0365C35.6876 38.8738 36.2905 38.5962 36.8457 38.1848C37.8027 37.4766 38.7215 36.4908 38.6736 35.1606C38.6449 34.5481 38.4822 33.9451 38.2621 33.3709C39.468 32.8733 41.0278 32.5861 43.009 32.8254C47.2678 33.3231 48.11 35.9836 47.9474 37.0938C47.7847 38.204 46.8946 38.8164 46.5978 39.0078C46.3012 39.1897 46.2055 39.2568 46.2342 39.3906C46.2725 39.5917 46.4064 39.582 46.6648 39.5439C47.0189 39.4863 48.9043 38.6347 48.9809 36.5867C49.0957 33.9545 46.5978 31.0834 42.1668 31.112ZM9.32148 42.1849C7.91464 43.7257 5.93359 44.3095 5.0914 43.8118C4.18222 43.2855 4.53622 41.0173 6.26855 39.3808C7.32128 38.3855 8.68984 37.4667 9.58945 36.9021C9.79042 36.7777 10.0967 36.5959 10.4603 36.3757C10.5178 36.3375 10.556 36.3183 10.556 36.3183C10.623 36.28 10.6996 36.2322 10.7762 36.1843C11.4174 38.5195 10.8049 40.5675 9.32148 42.1849ZM19.6096 35.189C19.1215 36.3853 18.0879 39.4573 17.4658 39.2851C16.9298 39.1415 16.6045 36.8159 17.3604 34.5191C17.7433 33.361 18.5567 31.9829 19.0352 31.4469C19.8105 30.5856 20.6526 30.2985 20.8633 30.6526C21.1121 31.112 19.9158 34.4425 19.6096 35.189ZM28.0984 39.2468C27.8879 39.3522 27.6965 39.4286 27.6103 39.3713C27.5434 39.333 27.6964 39.1895 27.6964 39.1895C27.6964 39.1895 28.7587 38.0506 29.1798 37.5242C29.419 37.2181 29.7061 36.864 30.0124 36.4619V36.5768C30.0125 37.9548 28.6918 38.8736 28.0984 39.2468ZM34.6444 37.7538C34.4913 37.639 34.5105 37.2849 35.0272 36.1747C35.2283 35.7345 35.6876 34.9976 36.4819 34.2989C36.5776 34.5861 36.6352 34.8635 36.6255 35.122C36.616 36.8447 35.391 37.4859 34.6444 37.7538Z" fill="#CF649A"/>
</g>
<defs>
<clipPath id="clip0_2_183">
<rect width="49" height="36.75" fill="white" transform="translate(0 10)"/>
</clipPath>
</defs>
</svg>
