<svg width="44" height="50" viewBox="0 0 44 50" fill="none" xmlns="http://www.w3.org/2000/svg">
<path d="M21.6637 0.800049C22.4729 0.800049 23.2489 1.12149 23.8211 1.69367C24.3933 2.26584 24.7147 3.04188 24.7147 3.85106V19.9238L38.6334 11.8874C38.9806 11.6839 39.3645 11.5511 39.7632 11.4966C40.1618 11.4421 40.5673 11.467 40.9563 11.5698C41.3453 11.6727 41.7101 11.8514 42.0298 12.0958C42.3494 12.3403 42.6175 12.6455 42.8187 12.9939C43.0199 13.3424 43.1502 13.7272 43.202 14.1262C43.2539 14.5252 43.2263 14.9305 43.1209 15.3189C43.0155 15.7072 42.8343 16.0708 42.5878 16.3888C42.3412 16.7068 42.0342 16.9729 41.6845 17.1718L27.7658 25.2081L41.6845 33.2445C42.0342 33.4433 42.3412 33.7094 42.5878 34.0274C42.8343 34.3454 43.0155 34.7091 43.1209 35.0974C43.2263 35.4857 43.2539 35.891 43.202 36.29C43.1502 36.689 43.0199 37.0738 42.8187 37.4223C42.6175 37.7708 42.3494 38.076 42.0298 38.3204C41.7101 38.5648 41.3453 38.7436 40.9563 38.8464C40.5673 38.9493 40.1618 38.9742 39.7632 38.9196C39.3645 38.8651 38.9806 38.7323 38.6334 38.5288L24.7147 30.4925V46.5652C24.7147 47.3744 24.3933 48.1504 23.8211 48.7226C23.2489 49.2947 22.4729 49.6162 21.6637 49.6162C20.8546 49.6162 20.0785 49.2947 19.5063 48.7226C18.9342 48.1504 18.6127 47.3744 18.6127 46.5652V30.4925L4.69403 38.5288C4.34691 38.7323 3.96298 38.8651 3.56432 38.9196C3.16566 38.9742 2.76016 38.9493 2.37116 38.8464C1.98215 38.7436 1.61734 38.5648 1.29771 38.3204C0.978082 38.076 0.709956 37.7708 0.508768 37.4223C0.30758 37.0738 0.177304 36.689 0.125442 36.29C0.0735787 35.891 0.101153 35.4857 0.206577 35.0974C0.312 34.7091 0.493191 34.3454 0.739718 34.0274C0.986244 33.7094 1.29324 33.4433 1.64302 33.2445L15.5617 25.2081L1.64302 17.1718C0.947982 16.7643 0.442323 16.0985 0.236392 15.3195C0.0304609 14.5406 0.140976 13.7119 0.543821 13.0142C0.946666 12.3164 1.60913 11.8064 2.38666 11.5953C3.16419 11.3842 3.99365 11.4892 4.69403 11.8874L18.6127 19.9238V3.85106C18.6127 3.04188 18.9342 2.26584 19.5063 1.69367C20.0785 1.12149 20.8546 0.800049 21.6637 0.800049Z" fill="white"/>
</svg>
