<svg width="49" height="49" viewBox="0 0 49 49" fill="none" xmlns="http://www.w3.org/2000/svg">
<g clip-path="url(#clip0_2_152)">
<path d="M0 24.5V0H49V49H0" fill="#007ACC"/>
<path d="M10.7433 24.5857V26.5825H17.1133V44.7125H21.6335V26.5825H28.0035V24.6225C28.0035 23.52 28.0035 22.6257 27.9545 22.6012C27.9545 22.5645 24.0713 22.5522 19.355 22.5522L10.78 22.589V24.598L10.7433 24.5857ZM39.3715 22.54C40.621 22.834 41.5765 23.3975 42.434 24.2917C42.8873 24.7817 43.561 25.6392 43.61 25.8597C43.61 25.9332 41.4908 27.3665 40.2045 28.1627C40.1555 28.1995 39.9595 27.9912 39.7635 27.6727C39.1265 26.7662 38.4773 26.3742 37.4605 26.3007C35.9905 26.2027 35.0105 26.9745 35.0105 28.2607C35.0105 28.6527 35.084 28.8732 35.231 29.1917C35.5618 29.8655 36.1743 30.2697 38.073 31.1027C41.5765 32.6095 43.0955 33.6017 44.0143 35.0227C45.0555 36.6152 45.2883 39.1142 44.59 40.9885C43.806 43.0342 41.895 44.4185 39.1633 44.8717C38.3058 45.0187 36.3458 44.9942 35.427 44.835C33.467 44.4675 31.5928 43.4875 30.4413 42.2257C29.988 41.7357 29.1183 40.425 29.1673 40.3392L29.6328 40.0452L31.4703 38.9795L32.8545 38.171L33.173 38.5997C33.5773 39.2367 34.4838 40.0942 35.0105 40.3882C36.603 41.209 38.7345 41.0987 39.788 40.1432C40.2413 39.7267 40.4373 39.2857 40.4373 38.6732C40.4373 38.1097 40.3515 37.8525 40.0698 37.4237C39.6778 36.8847 38.8938 36.4437 36.6888 35.4637C34.153 34.3857 33.075 33.6997 32.0705 32.6462C31.4948 32.0092 30.968 31.017 30.723 30.1962C30.5393 29.4857 30.478 27.7462 30.6495 27.048C31.1763 24.598 33.026 22.883 35.672 22.393C36.5295 22.2215 38.5508 22.295 39.396 22.5155L39.3715 22.54Z" fill="black"/>
</g>
<defs>
<clipPath id="clip0_2_152">
<rect width="49" height="49" fill="white"/>
</clipPath>
</defs>
</svg>
