<svg width="667" height="667" viewBox="0 0 667 667" fill="none" xmlns="http://www.w3.org/2000/svg">
<g opacity="0.4">
<path d="M539.436 341.309L661.262 390.729C669.573 394.098 667.102 406.528 658.117 406.454L526.632 405.48C519.294 405.48 515.625 414.315 520.866 419.481L614.463 511.731C620.903 518.02 613.864 528.578 605.553 525.058L484.476 473.843C477.736 470.998 470.924 477.812 473.769 484.55L524.984 605.628C528.504 613.938 517.946 620.978 511.656 614.537L419.407 520.941C414.24 515.699 405.405 519.368 405.405 526.707L406.378 658.191C406.378 667.177 394.023 669.647 390.653 661.336L341.235 539.511C338.464 532.697 328.88 532.697 326.109 539.511L276.691 661.336C273.321 669.647 260.89 667.177 260.966 658.191L261.939 526.707C261.939 519.368 253.104 515.699 247.937 520.941L155.689 614.537C149.398 620.978 138.84 613.938 142.36 605.628L193.577 484.55C196.422 477.812 189.608 470.998 182.868 473.843L61.7917 525.058C53.4802 528.578 46.4423 518.02 52.8812 511.731L146.479 419.481C151.72 414.315 148.05 405.48 140.713 405.48L9.22707 406.454C0.24252 406.454 -2.22905 394.098 6.0825 390.729L127.909 341.309C134.723 338.54 134.723 328.955 127.909 326.183L6.0825 276.765C-2.22905 273.395 0.242526 260.966 9.22708 261.04L140.713 262.015C148.05 262.015 151.72 253.178 146.479 248.013L52.8812 155.763C46.4423 149.473 53.4802 138.915 61.7917 142.435L182.868 193.651C189.608 196.496 196.422 189.682 193.577 182.944L142.36 61.8663C138.84 53.5549 149.398 46.5165 155.689 52.9559L247.937 146.553C253.104 151.794 261.939 148.125 261.939 140.787L260.966 9.30228C260.966 0.316974 273.321 -2.15399 276.691 6.15742L326.109 127.983C328.88 134.797 338.464 134.797 341.235 127.983L390.579 6.08255C393.949 -2.22886 406.378 0.242091 406.304 9.22742L405.33 140.712C405.33 148.05 414.166 151.72 419.331 146.478L511.656 52.8811C517.946 46.4416 528.504 53.48 524.984 61.7914L473.769 182.868C470.924 189.608 477.736 196.421 484.476 193.576L605.553 142.36C613.864 138.84 620.903 149.398 614.463 155.688L520.866 247.937C515.625 253.104 519.294 261.939 526.632 261.939L658.117 260.966C667.102 260.966 669.573 273.321 661.262 276.689L539.436 326.109C532.622 328.881 532.622 338.464 539.436 341.235L539.436 341.309Z" stroke="#737373" stroke-width="0.668651" stroke-miterlimit="10"/>
<path d="M471.963 339.285L554.115 372.61C559.72 374.884 558.054 383.266 551.995 383.215L463.329 382.557C458.38 382.557 455.907 388.517 459.44 392L522.557 454.207C526.9 458.448 522.153 465.569 516.549 463.195L434.901 428.658C430.357 426.74 425.762 431.335 427.682 435.879L462.218 517.526C464.592 523.13 457.472 527.877 453.23 523.534L391.023 460.418C387.539 456.884 381.581 459.358 381.581 464.307L382.237 552.971C382.237 559.03 373.907 560.697 371.634 555.093L338.309 472.94C336.441 468.345 329.977 468.345 328.11 472.94L294.784 555.093C292.513 560.697 284.131 559.03 284.181 552.971L284.837 464.307C284.837 459.358 278.88 456.884 275.395 460.418L213.188 523.534C208.946 527.877 201.828 523.13 204.2 517.526L238.737 435.879C240.657 431.335 236.062 426.74 231.517 428.658L149.871 463.195C144.266 465.569 139.52 458.448 143.861 454.207L206.978 392C210.511 388.517 208.038 382.557 203.09 382.557L114.424 383.215C108.365 383.215 106.699 374.883 112.304 372.61L194.455 339.285C199.05 337.418 199.05 330.955 194.455 329.086L112.304 295.761C106.699 293.489 108.365 285.107 114.424 285.157L203.09 285.814C208.038 285.814 210.511 279.856 206.978 276.371L143.861 214.164C139.52 209.923 144.266 202.804 149.871 205.176L231.517 239.715C236.062 241.633 240.657 237.038 238.737 232.494L204.2 150.847C201.828 145.242 208.946 140.496 213.188 144.838L275.395 207.954C278.88 211.489 284.837 209.014 284.837 204.066L284.181 115.401C284.181 109.342 292.513 107.675 294.784 113.28L328.11 195.431C329.977 200.026 336.441 200.026 338.309 195.431L371.584 113.23C373.857 107.625 382.237 109.291 382.187 115.35L381.531 204.016C381.531 208.964 387.488 211.439 390.973 207.904L453.23 144.788C457.472 140.445 464.592 145.192 462.218 150.796L427.682 232.443C425.762 236.987 430.357 241.582 434.901 239.664L516.549 205.126C522.153 202.754 526.9 209.872 522.557 214.114L459.44 276.321C455.907 279.805 458.38 285.763 463.329 285.763L551.995 285.107C558.054 285.107 559.72 293.439 554.115 295.71L471.963 329.035C467.368 330.905 467.368 337.367 471.963 339.235L471.963 339.285Z" stroke="#737373" stroke-width="0.668651" stroke-miterlimit="10"/>
<path d="M402.587 336.709L443.662 353.373C446.465 354.508 445.632 358.7 442.602 358.674L398.27 358.346C395.795 358.346 394.558 361.324 396.325 363.067L427.884 394.17C430.054 396.292 427.682 399.85 424.879 398.664L384.056 381.396C381.783 380.436 379.486 382.734 380.445 385.005L397.715 425.83C398.901 428.631 395.341 431.005 393.221 428.835L362.116 397.276C360.375 395.509 357.395 396.746 357.395 399.219L357.723 443.553C357.723 446.582 353.557 447.414 352.422 444.613L335.76 403.537C334.824 401.24 331.594 401.24 330.66 403.537L313.997 444.613C312.861 447.414 308.67 446.582 308.695 443.553L309.023 399.219C309.023 396.746 306.044 395.509 304.302 397.276L273.2 428.835C271.078 431.005 267.518 428.631 268.706 425.83L285.973 385.005C286.932 382.734 284.636 380.436 282.362 381.396L241.54 398.664C238.737 399.85 236.365 396.292 238.535 394.17L270.094 363.067C271.86 361.324 270.624 358.346 268.149 358.346L223.816 358.674C220.788 358.674 219.953 354.508 222.756 353.373L263.833 336.709C266.13 335.776 266.13 332.543 263.833 331.61L222.757 314.948C219.953 313.81 220.788 309.621 223.816 309.646L268.149 309.974C270.624 309.974 271.86 306.995 270.094 305.253L238.535 274.149C236.365 272.029 238.737 268.469 241.54 269.655L282.362 286.924C284.636 287.883 286.932 285.587 285.973 283.313L268.706 242.489C267.518 239.688 271.078 237.314 273.2 239.486L304.302 271.043C306.044 272.811 309.023 271.575 309.023 269.1L308.695 224.768C308.695 221.737 312.861 220.905 313.997 223.708L330.66 264.782C331.594 267.081 334.824 267.081 335.76 264.782L352.397 223.682C353.532 220.879 357.723 221.712 357.698 224.742L357.37 269.074C357.37 271.549 360.35 272.786 362.091 271.018L393.221 239.461C395.341 237.289 398.901 239.663 397.715 242.464L380.445 283.288C379.486 285.561 381.783 287.858 384.056 286.899L424.879 269.63C427.682 268.444 430.054 272.004 427.884 274.124L396.325 305.228C394.558 306.969 395.795 309.949 398.27 309.949L442.602 309.621C445.632 309.621 446.465 313.785 443.662 314.923L402.587 331.584C400.289 332.518 400.289 335.75 402.587 336.684L402.587 336.709Z" stroke="#737373" stroke-width="0.668651" stroke-miterlimit="10"/>
</g>
</svg>
