<svg width="191" height="191" viewBox="0 0 191 191" fill="none" xmlns="http://www.w3.org/2000/svg">
<rect width="191" height="191" rx="95.5" fill="black"/>
<path d="M94.2267 25.4667C96.5202 25.4667 98.7198 26.389 100.342 28.0307C101.963 29.6724 102.874 31.8991 102.874 34.2208V80.3378L142.325 57.2793C143.309 56.6954 144.397 56.3143 145.527 56.1579C146.657 56.0015 147.807 56.0729 148.909 56.368C150.012 56.6631 151.046 57.176 151.952 57.8773C152.858 58.5786 153.618 59.4544 154.188 60.4542C154.758 61.454 155.128 62.5581 155.275 63.703C155.422 64.8479 155.343 66.0109 155.045 67.125C154.746 68.2392 154.232 69.2825 153.533 70.195C152.835 71.1074 151.965 71.8709 150.973 72.4415L111.522 95.5L150.973 118.558C151.965 119.129 152.835 119.893 153.533 120.805C154.232 121.717 154.746 122.761 155.045 123.875C155.343 124.989 155.422 126.152 155.275 127.297C155.128 128.442 154.758 129.546 154.188 130.546C153.618 131.546 152.858 132.421 151.952 133.123C151.046 133.824 150.012 134.337 148.909 134.632C147.807 134.927 146.657 134.998 145.527 134.842C144.397 134.686 143.309 134.305 142.325 133.721L102.874 110.662V156.779C102.874 159.101 101.963 161.328 100.342 162.969C98.7198 164.611 96.5202 165.533 94.2267 165.533C91.9331 165.533 89.7336 164.611 88.1118 162.969C86.49 161.328 85.5789 159.101 85.5789 156.779V110.662L46.1279 133.721C45.1441 134.305 44.0559 134.686 42.9259 134.842C41.796 134.998 40.6466 134.927 39.544 134.632C38.4414 134.337 37.4074 133.824 36.5015 133.123C35.5955 132.421 34.8355 131.546 34.2653 130.546C33.695 129.546 33.3258 128.442 33.1788 127.297C33.0318 126.152 33.11 124.989 33.4088 123.875C33.7076 122.761 34.2211 121.717 34.9199 120.805C35.6186 119.893 36.4888 119.129 37.4802 118.558L76.9312 95.5L37.4802 72.4415C35.5102 71.2724 34.077 69.3619 33.4933 67.127C32.9096 64.8921 33.2228 62.5142 34.3646 60.5123C35.5065 58.5103 37.3842 57.0468 39.588 56.4411C41.7918 55.8354 44.1428 56.1367 46.1279 57.2793L85.5789 80.3378V34.2208C85.5789 31.8991 86.49 29.6724 88.1118 28.0307C89.7336 26.389 91.9331 25.4667 94.2267 25.4667Z" fill="#0071E3"/>
</svg>
