<svg width="60" height="60" viewBox="0 0 60 60" fill="none" xmlns="http://www.w3.org/2000/svg">
<g clip-path="url(#clip0_327_2)">
<path d="M30 56.25C23.0381 56.25 16.3613 53.4844 11.4384 48.5616C6.51562 43.6387 3.75 36.9619 3.75 30C3.75 23.0381 6.51562 16.3613 11.4384 11.4384C16.3613 6.51562 23.0381 3.75 30 3.75C36.9619 3.75 43.6387 6.51562 48.5616 11.4384C53.4844 16.3613 56.25 23.0381 56.25 30C56.25 36.9619 53.4844 43.6387 48.5616 48.5616C43.6387 53.4844 36.9619 56.25 30 56.25ZM30 60C37.9565 60 45.5871 56.8393 51.2132 51.2132C56.8393 45.5871 60 37.9565 60 30C60 22.0435 56.8393 14.4129 51.2132 8.7868C45.5871 3.16071 37.9565 0 30 0C22.0435 0 14.4129 3.16071 8.7868 8.7868C3.16071 14.4129 0 22.0435 0 30C0 37.9565 3.16071 45.5871 8.7868 51.2132C14.4129 56.8393 22.0435 60 30 60Z" fill="#A793CC"/>
<path d="M30 48.75C25.0272 48.75 20.2581 46.7746 16.7417 43.2583C13.2254 39.7419 11.25 34.9728 11.25 30C11.25 25.0272 13.2254 20.2581 16.7417 16.7417C20.2581 13.2254 25.0272 11.25 30 11.25C34.9728 11.25 39.7419 13.2254 43.2583 16.7417C46.7746 20.2581 48.75 25.0272 48.75 30C48.75 34.9728 46.7746 39.7419 43.2583 43.2583C39.7419 46.7746 34.9728 48.75 30 48.75ZM30 52.5C32.9547 52.5 35.8806 51.918 38.6104 50.7873C41.3402 49.6566 43.8206 47.9992 45.9099 45.9099C47.9992 43.8206 49.6566 41.3402 50.7873 38.6104C51.918 35.8806 52.5 32.9547 52.5 30C52.5 27.0453 51.918 24.1194 50.7873 21.3896C49.6566 18.6598 47.9992 16.1794 45.9099 14.0901C43.8206 12.0008 41.3402 10.3434 38.6104 9.21271C35.8806 8.08198 32.9547 7.5 30 7.5C24.0326 7.5 18.3097 9.87053 14.0901 14.0901C9.87053 18.3097 7.5 24.0326 7.5 30C7.5 35.9674 9.87053 41.6903 14.0901 45.9099C18.3097 50.1295 24.0326 52.5 30 52.5Z" fill="#A793CC"/>
<path d="M30 41.25C27.0163 41.25 24.1548 40.0647 22.045 37.955C19.9353 35.8452 18.75 32.9837 18.75 30C18.75 27.0163 19.9353 24.1548 22.045 22.045C24.1548 19.9353 27.0163 18.75 30 18.75C32.9837 18.75 35.8452 19.9353 37.955 22.045C40.0647 24.1548 41.25 27.0163 41.25 30C41.25 32.9837 40.0647 35.8452 37.955 37.955C35.8452 40.0647 32.9837 41.25 30 41.25ZM30 45C33.9782 45 37.7936 43.4196 40.6066 40.6066C43.4196 37.7936 45 33.9782 45 30C45 26.0218 43.4196 22.2064 40.6066 19.3934C37.7936 16.5804 33.9782 15 30 15C26.0218 15 22.2064 16.5804 19.3934 19.3934C16.5804 22.2064 15 26.0218 15 30C15 33.9782 16.5804 37.7936 19.3934 40.6066C22.2064 43.4196 26.0218 45 30 45Z" fill="#A793CC"/>
<path d="M35.625 30C35.625 31.4918 35.0324 32.9226 33.9775 33.9775C32.9226 35.0324 31.4918 35.625 30 35.625C28.5082 35.625 27.0774 35.0324 26.0225 33.9775C24.9676 32.9226 24.375 31.4918 24.375 30C24.375 28.5082 24.9676 27.0774 26.0225 26.0225C27.0774 24.9676 28.5082 24.375 30 24.375C31.4918 24.375 32.9226 24.9676 33.9775 26.0225C35.0324 27.0774 35.625 28.5082 35.625 30Z" fill="#A793CC"/>
</g>
<defs>
<clipPath id="clip0_327_2">
<rect width="60" height="60" fill="white"/>
</clipPath>
</defs>
</svg>
