<svg width="192" height="192" viewBox="0 0 192 192" fill="none" xmlns="http://www.w3.org/2000/svg">
<rect width="191" height="191" rx="95.5" fill="white"/>
<g clip-path="url(#clip0_215_22)">
<path d="M96 180C73.7218 180 52.3561 171.15 36.603 155.397C20.85 139.644 12 118.278 12 96C12 73.7218 20.85 52.3561 36.603 36.603C52.3561 20.85 73.7218 12 96 12C118.278 12 139.644 20.85 155.397 36.603C171.15 52.3561 180 73.7218 180 96C180 118.278 171.15 139.644 155.397 155.397C139.644 171.15 118.278 180 96 180ZM96 192C121.461 192 145.879 181.886 163.882 163.882C181.886 145.879 192 121.461 192 96C192 70.5392 181.886 46.1212 163.882 28.1178C145.879 10.1143 121.461 0 96 0C70.5392 0 46.1212 10.1143 28.1178 28.1178C10.1143 46.1212 0 70.5392 0 96C0 121.461 10.1143 145.879 28.1178 163.882C46.1212 181.886 70.5392 192 96 192Z" fill="#0071E3"/>
<path d="M96 156C80.087 156 64.8258 149.679 53.5736 138.426C42.3214 127.174 36 111.913 36 96C36 80.087 42.3214 64.8258 53.5736 53.5736C64.8258 42.3214 80.087 36 96 36C111.913 36 127.174 42.3214 138.426 53.5736C149.679 64.8258 156 80.087 156 96C156 111.913 149.679 127.174 138.426 138.426C127.174 149.679 111.913 156 96 156ZM96 168C105.455 168 114.818 166.138 123.553 162.519C132.289 158.901 140.226 153.598 146.912 146.912C153.598 140.226 158.901 132.289 162.519 123.553C166.138 114.818 168 105.455 168 96C168 86.5448 166.138 77.1822 162.519 68.4468C158.901 59.7113 153.598 51.7741 146.912 45.0883C140.226 38.4025 132.289 33.099 123.553 29.4807C114.818 25.8623 105.455 24 96 24C76.9044 24 58.5909 31.5857 45.0883 45.0883C31.5857 58.5909 24 76.9044 24 96C24 115.096 31.5857 133.409 45.0883 146.912C58.5909 160.414 76.9044 168 96 168Z" fill="#0071E3"/>
<path d="M96 132C86.4522 132 77.2955 128.207 70.5442 121.456C63.7928 114.705 60 105.548 60 96C60 86.4522 63.7928 77.2955 70.5442 70.5442C77.2955 63.7928 86.4522 60 96 60C105.548 60 114.705 63.7928 121.456 70.5442C128.207 77.2955 132 86.4522 132 96C132 105.548 128.207 114.705 121.456 121.456C114.705 128.207 105.548 132 96 132ZM96 144C108.73 144 120.939 138.943 129.941 129.941C138.943 120.939 144 108.73 144 96C144 83.2696 138.943 71.0606 129.941 62.0589C120.939 53.0571 108.73 48 96 48C83.2696 48 71.0606 53.0571 62.0589 62.0589C53.0571 71.0606 48 83.2696 48 96C48 108.73 53.0571 120.939 62.0589 129.941C71.0606 138.943 83.2696 144 96 144Z" fill="#0071E3"/>
<path d="M114 96C114 100.774 112.104 105.352 108.728 108.728C105.352 112.104 100.774 114 96 114C91.2261 114 86.6477 112.104 83.2721 108.728C79.8964 105.352 78 100.774 78 96C78 91.2261 79.8964 86.6477 83.2721 83.2721C86.6477 79.8964 91.2261 78 96 78C100.774 78 105.352 79.8964 108.728 83.2721C112.104 86.6477 114 91.2261 114 96Z" fill="#0071E3"/>
</g>
<defs>
<clipPath id="clip0_215_22">
<rect width="192" height="192" fill="white"/>
</clipPath>
</defs>
</svg>
